<svg width="21" height="22" viewBox="0 0 21 22" fill="none" xmlns="http://www.w3.org/2000/svg">
<path d="M12.6523 6.79126H2.23568C1.08672 6.79126 0.152344 7.76301 0.152344 8.95793V19.7913C0.152344 20.9862 1.08672 21.9579 2.23568 21.9579H12.6523C13.8013 21.9579 14.7357 20.9862 14.7357 19.7913V8.95793C14.7357 7.76301 13.8013 6.79126 12.6523 6.79126Z" fill="#FFC224"/>
<path d="M18.9023 0.29126H8.48568C7.93314 0.29126 7.40324 0.519533 7.01254 0.925862C6.62184 1.33219 6.40234 1.88329 6.40234 2.45793V4.62459H14.7357C15.2882 4.62459 15.8181 4.85287 16.2088 5.2592C16.5995 5.66552 16.819 6.21662 16.819 6.79126V15.4579H18.9023C19.4549 15.4579 19.9848 15.2297 20.3755 14.8233C20.7662 14.417 20.9857 13.8659 20.9857 13.2913V2.45793C20.9857 1.88329 20.7662 1.33219 20.3755 0.925862C19.9848 0.519533 19.4549 0.29126 18.9023 0.29126Z" fill="#FFC224"/>
</svg>
