<svg width="24" height="27" viewBox="0 0 24 27" fill="none" xmlns="http://www.w3.org/2000/svg">
<path d="M15.7782 12.401C15.7782 13.1921 15.1947 13.8405 14.4555 13.8405C13.7292 13.8405 13.1327 13.1921 13.1327 12.401C13.1327 11.61 13.7163 10.9615 14.4555 10.9615C15.1947 10.9615 15.7782 11.61 15.7782 12.401ZM9.72199 10.9615C8.98279 10.9615 8.39921 11.61 8.39921 12.401C8.39921 13.1921 8.99576 13.8405 9.72199 13.8405C10.4612 13.8405 11.0448 13.1921 11.0448 12.401C11.0577 11.61 10.4612 10.9615 9.72199 10.9615ZM23.4166 2.75254V26.0178C20.1495 23.1307 21.1944 24.0864 17.3993 20.5581L18.0866 22.9573H3.38044C1.91502 22.9573 0.721924 21.7642 0.721924 20.2858V2.75254C0.721924 1.27415 1.91502 0.0810547 3.38044 0.0810547H20.7581C22.2235 0.0810547 23.4166 1.27415 23.4166 2.75254ZM19.7206 15.0466C19.7206 10.8708 17.8532 7.48601 17.8532 7.48601C15.9857 6.08542 14.2091 6.12433 14.2091 6.12433L14.0275 6.33182C16.2321 7.00618 17.2566 7.97881 17.2566 7.97881C14.1761 6.29043 10.5574 6.29013 7.56924 7.60272C7.08941 7.82319 6.8041 7.97881 6.8041 7.97881C6.8041 7.97881 7.88048 6.9543 10.2148 6.27995L10.0851 6.12433C10.0851 6.12433 8.30843 6.08542 6.44099 7.48601C6.44099 7.48601 4.57354 10.8708 4.57354 15.0466C4.57354 15.0466 5.66288 16.927 8.5289 17.0178C8.5289 17.0178 9.00873 16.4342 9.39778 15.9414C7.75079 15.4486 7.12831 14.4111 7.12831 14.4111C7.31909 14.5447 7.63367 14.7178 7.66002 14.7353C9.84894 15.9612 12.9582 16.3628 15.7523 15.1892C16.2062 15.0206 16.712 14.7742 17.2437 14.4241C17.2437 14.4241 16.5952 15.4875 14.8964 15.9673C15.2854 16.4601 15.7523 17.0178 15.7523 17.0178C18.6183 16.927 19.7206 15.0466 19.7206 15.0466Z" fill="white"/>
</svg>
