<?xml version="1.0" encoding="utf-8"?>
<!-- Generator: Adobe Illustrator 25.3.1, SVG Export Plug-In . SVG Version: 6.00 Build 0)  -->
<svg version="1.1" id="Layer_1" xmlns="http://www.w3.org/2000/svg" xmlns:xlink="http://www.w3.org/1999/xlink" x="0px" y="0px" width="24" height="27"
	 viewBox="0 0 24 27" style="enable-background:new 0 0 24 27;" xml:space="preserve">
<style type="text/css">
	.st0{display:none;}
	.st1{display:inline;fill:#FFFFFF;}
	.st2{fill:#FFFFFF;}
</style>
<g class="st0">
	<path class="st1" d="M12,3.7c3.1,0,3.6,0,4.8,0.1C18,3.9,18.6,4.1,19,4.2c0.6,0.2,0.9,0.5,1.4,0.9c0.5,0.5,0.6,0.8,0.9,1.4
		c0.2,0.5,0.4,1,0.4,2.2c0.1,1.3,0.1,1.7,0.1,4.8s0,3.6-0.1,4.8c-0.1,1.2-0.3,1.8-0.4,2.2c-0.2,0.6-0.5,0.9-0.9,1.4
		c-0.5,0.5-0.8,0.6-1.4,0.9c-0.5,0.2-1,0.4-2.2,0.4c-1.3,0.1-1.7,0.1-4.8,0.1s-3.6,0-4.8-0.1S5.4,22.9,5,22.8
		c-0.6-0.2-0.9-0.5-1.4-0.9c-0.5-0.5-0.6-0.8-0.9-1.4c-0.2-0.5-0.4-1-0.4-2.2c-0.1-1.3-0.1-1.7-0.1-4.8s0-3.6,0.1-4.8
		c0.1-1.2,0.3-1.8,0.4-2.2c0.2-0.6,0.5-0.9,0.9-1.4C4.1,4.6,4.4,4.5,5,4.2c0.4-0.1,1-0.3,2.2-0.4S8.9,3.7,12,3.7 M12,1.6
		c-3.2,0-3.6,0-4.9,0.1C5.8,1.7,5,2,4.2,2.2c-0.7,0.3-1.4,0.6-2,1.4S1,4.9,0.7,5.7c-0.3,0.8-0.6,1.7-0.6,3c-0.1,1.3-0.1,1.7-0.1,4.9
		s0,3.6,0.1,4.9s0.3,2.1,0.6,2.9s0.7,1.5,1.4,2.1c0.6,0.7,1.3,1.1,2,1.4C4.9,25,5.8,25.2,7,25.3c1.3,0.1,1.7,0.1,4.9,0.1
		s3.6,0,4.9-0.1c1.3-0.1,2.1-0.3,2.9-0.6c0.7-0.3,1.5-0.7,2.1-1.4c0.6-0.6,1.1-1.3,1.4-2.1c0.3-0.7,0.5-1.7,0.6-2.9
		c0.1-1.3,0.1-1.7,0.1-4.9s0-3.6-0.1-4.9c-0.1-1.3-0.3-2.1-0.6-2.9c-0.3-0.7-0.7-1.5-1.4-2.1s-1.3-1.1-2.1-1.4
		C18.9,2,18,1.8,16.8,1.7C15.6,1.6,15.2,1.6,12,1.6z M12,7.4c-3.4,0-6.1,2.8-6.1,6.1s2.8,6.1,6.1,6.1s6.1-2.8,6.1-6.1
		S15.4,7.4,12,7.4z M12,17.5c-2.2,0-4-1.8-4-4s1.8-4,4-4s4,1.8,4,4S14.2,17.5,12,17.5z M19.8,7.1c0,0.8-0.6,1.4-1.4,1.4
		c-0.8,0-1.4-0.6-1.4-1.4c0-0.8,0.6-1.4,1.4-1.4C19.1,5.7,19.8,6.4,19.8,7.1z"/>
</g>
<g>
	<path class="st2" d="M24,13.6c0-6.6-5.4-12-12-12S0,7,0,13.6c0,6,4.4,10.9,10.1,11.8V17h-3v-3.5h3v-2.6c0-3,1.8-4.7,4.5-4.7
		c1.3,0,2.7,0.2,2.7,0.2v2.9h-1.5c-1.5,0-2,0.9-2,1.9v2.2h3.3L16.7,17h-2.8v8.4C19.6,24.5,24,19.6,24,13.6z"/>
</g>
</svg>
