<?xml version="1.0" encoding="utf-8"?>
<!-- Generator: Adobe Illustrator 25.2.3, SVG Export Plug-In . SVG Version: 6.00 Build 0)  -->
<svg version="1.1" id="Layer_1" xmlns="http://www.w3.org/2000/svg" xmlns:xlink="http://www.w3.org/1999/xlink" x="0px" y="0px" width="24" height="27"
	 viewBox="0 0 26 27" style="enable-background:new 0 0 26 27;" xml:space="preserve">
<style type="text/css">
	.st0{fill:#FFFFFF;}
</style>
<g>
	<path class="st0" d="M13,2.9c3.4,0,3.9,0,5.2,0.1c1.3,0.1,1.9,0.3,2.4,0.4c0.6,0.2,1,0.5,1.5,1s0.7,0.9,1,1.5
		c0.2,0.5,0.4,1.1,0.4,2.4c0.1,1.4,0.1,1.8,0.1,5.2s0,3.9-0.1,5.2c-0.1,1.3-0.3,1.9-0.4,2.4c-0.2,0.6-0.5,1-1,1.5s-0.9,0.7-1.5,1
		c-0.5,0.2-1.1,0.4-2.4,0.4c-1.4,0.1-1.8,0.1-5.2,0.1s-3.9,0-5.2-0.1c-1.3-0.1-1.9-0.3-2.4-0.4c-0.6-0.2-1-0.5-1.5-1s-0.7-0.9-1-1.5
		c-0.2-0.5-0.4-1.1-0.4-2.4c-0.1-1.4-0.1-1.8-0.1-5.2s0-3.9,0.1-5.2C2.6,7,2.8,6.3,2.9,5.9c0.2-0.6,0.5-1,1-1.5s0.9-0.7,1.5-1
		C5.8,3.3,6.5,3.1,7.8,3C9.1,2.9,9.6,2.9,13,2.9 M13,0.6c-3.5,0-3.9,0-5.3,0.1C6.3,0.7,5.4,1,4.5,1.3C3.7,1.6,3,2,2.3,2.8
		S1.1,4.2,0.8,5C0.5,5.9,0.2,6.8,0.2,8.2C0.1,9.6,0.1,10,0.1,13.5s0,3.9,0.1,5.3c0.1,1.4,0.3,2.3,0.6,3.1c0.3,0.8,0.8,1.6,1.5,2.3
		C3,25,3.7,25.4,4.5,25.7c0.8,0.3,1.8,0.5,3.1,0.6c1.4,0.1,1.8,0.1,5.3,0.1s3.9,0,5.3-0.1c1.4-0.1,2.3-0.3,3.1-0.6
		c0.8-0.3,1.6-0.8,2.3-1.5c0.7-0.7,1.2-1.4,1.5-2.3c0.3-0.8,0.5-1.8,0.6-3.1c0.1-1.4,0.1-1.8,0.1-5.3s0-3.9-0.1-5.3
		c-0.1-1.4-0.3-2.3-0.6-3.1c-0.3-0.8-0.8-1.6-1.5-2.3s-1.4-1.2-2.3-1.5c-0.8-0.3-1.8-0.5-3.1-0.6C16.9,0.6,16.5,0.6,13,0.6z M13,6.9
		c-3.7,0-6.6,3-6.6,6.6s3,6.6,6.6,6.6s6.6-3,6.6-6.6S16.7,6.9,13,6.9z M13,17.8c-2.4,0-4.3-1.9-4.3-4.3s1.9-4.3,4.3-4.3
		s4.3,1.9,4.3,4.3S15.4,17.8,13,17.8z M21.4,6.6c0,0.9-0.7,1.5-1.5,1.5c-0.9,0-1.5-0.7-1.5-1.5c0-0.9,0.7-1.5,1.5-1.5
		C20.7,5.1,21.4,5.8,21.4,6.6z"/>
</g>
</svg>
