<svg width="23" height="24" viewBox="0 0 23 24" fill="none" xmlns="http://www.w3.org/2000/svg">
<path d="M0.269043 0.426758V23.1214H22.9637V0.426758H0.269043ZM19.1239 5.80155L17.9081 6.96668C17.8017 7.04773 17.751 7.17944 17.7713 7.30609V15.8824C17.751 16.0142 17.8017 16.1459 17.9081 16.2219L19.0985 17.387V17.6453H13.1209V17.3971L14.3519 16.2016C14.4735 16.08 14.4735 16.0446 14.4735 15.8622V8.92714L11.049 17.62H10.588L6.60127 8.92714V14.7528C6.56581 14.9959 6.65192 15.2442 6.82416 15.4215L8.42495 17.3617V17.62H3.87588V17.3617L5.47666 15.4215C5.6489 15.2442 5.72489 14.9959 5.68436 14.7528V8.01529C5.70462 7.82786 5.6337 7.64549 5.49186 7.51885L4.06838 5.80155V5.54319H8.4908L11.9051 13.0405L14.9091 5.54826H19.1239V5.80155Z" fill="white"/>
</svg>
