<svg width="28" height="22" viewBox="0 0 28 22" fill="none" xmlns="http://www.w3.org/2000/svg">
<path d="M25.1788 2.51871L27.3388 0.452307V0H19.856L14.5231 13.2737L8.45585 0H0.609835V0.452307L3.13306 3.48987C3.37895 3.71433 3.50753 4.04257 3.47482 4.37306V16.3101C3.55265 16.7399 3.41279 17.182 3.1105 17.4945L0.268066 20.9392V21.3859H8.32726V20.9336L5.48483 17.4945C5.1769 17.1809 5.03139 16.7467 5.09343 16.3101V5.9849L12.1679 21.3915H12.9902L19.0732 5.9849V18.2581C19.0732 18.5818 19.0732 18.6484 18.8612 18.8604L16.673 20.9776V21.431H27.2892V20.9787L25.1799 18.9134C24.995 18.7736 24.8991 18.539 24.9386 18.3111V3.12103C24.8991 2.89206 24.9938 2.65745 25.1788 2.51871Z" fill="white"/>
</svg>
