<svg width="28" height="28" viewBox="0 0 28 28" fill="none" xmlns="http://www.w3.org/2000/svg">
<path d="M25.8587 13.8536C24.8834 12.4882 23.713 11.5128 22.1525 10.7326C21.5673 10.3425 21.3722 10.1474 21.3722 9.36716C21.5673 8.00172 21.7624 6.83134 22.1525 5.46591C22.5426 2.93009 20.787 1.17453 18.8364 0.97947C16.6907 0.784408 14.9352 2.53997 14.9352 4.88072C14.9352 5.85603 14.9352 7.02641 14.9352 8.00172C14.9352 8.78197 14.7401 8.97703 13.9599 8.78197C13.7648 8.78197 13.3747 8.78197 13.1796 8.78197C12.3994 8.97703 12.2043 8.78197 12.2043 8.00172C12.2043 6.63628 12.2043 5.46591 12.2043 4.10047C11.8142 2.14984 10.0586 0.784408 8.10799 0.97947C6.15736 1.17453 4.79192 2.93009 4.98699 5.07578C5.18205 6.44122 5.37711 7.80666 5.76724 9.17209C5.9623 9.95234 5.76724 10.3425 4.98699 10.9277C3.03636 11.903 1.08574 13.4635 0.695612 15.9993C-0.0846375 20.4857 0.50055 23.2166 4.79192 25.7524C7.5228 27.3129 10.4487 27.8981 13.3747 27.8981C17.666 27.8981 20.2019 27.1178 23.1278 25.3623C27.6142 22.8265 27.8093 16.7795 25.8587 13.8536ZM18.0562 14.8289C18.8364 14.6338 19.6167 15.6092 19.6167 16.7795C19.6167 17.7548 19.4216 18.5351 18.4463 18.7302C17.666 18.7302 17.2759 18.145 17.0809 17.3647C16.6907 16.1943 17.2759 15.024 18.0562 14.8289ZM8.88823 14.8289C9.66848 14.6338 10.2537 15.8042 10.2537 16.9746C10.0586 17.7548 10.0586 18.9252 8.88823 18.7302C7.91292 18.7302 7.71786 17.7548 7.5228 16.7795C7.71786 15.9993 7.91292 15.024 8.88823 14.8289ZM23.1278 23.0215C20.787 24.9721 18.2512 25.5573 15.3253 25.7524C11.8142 26.1425 8.30305 25.5573 5.18205 23.8018C3.42649 22.6314 1.86599 21.266 2.06105 18.5351C5.76724 25.9475 21.7624 26.3376 25.4685 18.5351C25.4685 20.6808 24.4932 22.0462 23.1278 23.0215Z" fill="white"/>
</svg>
