<svg width="26" height="27" viewBox="0 0 26 27" fill="none" xmlns="http://www.w3.org/2000/svg">
<path d="M10.3184 15.9838C9.61932 15.9838 9.05702 15.4215 9.05702 14.7376C9.05702 14.0385 9.61932 13.4762 10.3184 13.4762C11.0073 13.4762 11.5646 14.0385 11.5646 14.7376C11.5646 15.4265 11.0023 15.9838 10.3184 15.9838ZM25.6424 13.4762C25.6424 20.4163 20.0194 26.0393 13.0792 26.0393C6.13913 26.0393 0.516113 20.4163 0.516113 13.4762C0.516113 6.5361 6.13913 0.913086 13.0792 0.913086C20.0194 0.913086 25.6424 6.5361 25.6424 13.4762ZM18.9404 11.3891C18.4642 11.3891 18.0437 11.5867 17.7347 11.8957C16.6 11.1105 15.0701 10.6039 13.3731 10.5482L14.2545 6.58169L17.0609 7.21491C17.0609 7.90386 17.6232 8.4611 18.3071 8.4611C19.0062 8.4611 19.5685 7.88866 19.5685 7.19972C19.5685 6.51077 19.0062 5.93834 18.3071 5.93834C17.8157 5.93834 17.3953 6.23215 17.1876 6.63742L14.0873 5.94847C13.9354 5.90794 13.7783 6.01939 13.7378 6.17136L12.7702 10.5482C11.0884 10.6191 9.57373 11.1206 8.43899 11.9058C8.12998 11.5816 7.69432 11.3891 7.21814 11.3891C5.45018 11.3891 4.87268 13.765 6.48867 14.5704C6.43294 14.8237 6.40255 15.0871 6.40255 15.3556C6.40255 18.0202 9.40149 20.1782 13.0894 20.1782C16.7925 20.1782 19.7914 18.0202 19.7914 15.3556C19.7914 15.0871 19.761 14.8085 19.6952 14.5552C21.2807 13.7447 20.6982 11.3891 18.9404 11.3891V11.3891ZM15.45 17.2756C14.5281 18.1975 11.595 18.1823 10.7085 17.2756C10.597 17.1641 10.3994 17.1641 10.288 17.2756C10.1614 17.4022 10.1614 17.5998 10.288 17.7112C11.443 18.8662 14.7104 18.8662 15.8705 17.7112C15.9971 17.5998 15.9971 17.4022 15.8705 17.2756C15.759 17.1641 15.5615 17.1641 15.45 17.2756ZM15.8401 13.4762C15.1511 13.4762 14.5939 14.0385 14.5939 14.7376C14.5939 15.4265 15.1562 15.9838 15.8401 15.9838C16.5392 15.9838 17.1015 15.4215 17.1015 14.7376C17.1015 14.0385 16.5442 13.4762 15.8401 13.4762V13.4762Z" fill="white"/>
</svg>
