<svg width="15" height="14" viewBox="0 0 15 14" fill="none" xmlns="http://www.w3.org/2000/svg">
<path d="M14.5256 10.5527H5.10329V10.104C5.10329 9.85721 4.90138 9.65531 4.6546 9.65531H3.75724C3.51046 9.65531 3.30855 9.85721 3.30855 10.104V10.5527H1.06514C0.818363 10.5527 0.616455 10.7546 0.616455 11.0014V11.8987C0.616455 12.1455 0.818363 12.3474 1.06514 12.3474H3.30855V12.7961C3.30855 13.0429 3.51046 13.2448 3.75724 13.2448H4.6546C4.90138 13.2448 5.10329 13.0429 5.10329 12.7961V12.3474H14.5256C14.7724 12.3474 14.9743 12.1455 14.9743 11.8987V11.0014C14.9743 10.7546 14.7724 10.5527 14.5256 10.5527ZM14.5256 6.06584H12.2822V5.61716C12.2822 5.37038 12.0803 5.16847 11.8335 5.16847H10.9362C10.6894 5.16847 10.4875 5.37038 10.4875 5.61716V6.06584H1.06514C0.818363 6.06584 0.616455 6.26775 0.616455 6.51452V7.41189C0.616455 7.65867 0.818363 7.86057 1.06514 7.86057H10.4875V8.30926C10.4875 8.55603 10.6894 8.75794 10.9362 8.75794H11.8335C12.0803 8.75794 12.2822 8.55603 12.2822 8.30926V7.86057H14.5256C14.7724 7.86057 14.9743 7.65867 14.9743 7.41189V6.51452C14.9743 6.26775 14.7724 6.06584 14.5256 6.06584ZM14.5256 1.57901H8.69275V1.13032C8.69275 0.883548 8.49085 0.681641 8.24407 0.681641H7.3467C7.09993 0.681641 6.89802 0.883548 6.89802 1.13032V1.57901H1.06514C0.818363 1.57901 0.616455 1.78091 0.616455 2.02769V2.92506C0.616455 3.17183 0.818363 3.37374 1.06514 3.37374H6.89802V3.82242C6.89802 4.0692 7.09993 4.27111 7.3467 4.27111H8.24407C8.49085 4.27111 8.69275 4.0692 8.69275 3.82242V3.37374H14.5256C14.7724 3.37374 14.9743 3.17183 14.9743 2.92506V2.02769C14.9743 1.78091 14.7724 1.57901 14.5256 1.57901Z" fill="white"/>
</svg>
