<svg width="26" height="26" viewBox="0 0 26 26" fill="none" xmlns="http://www.w3.org/2000/svg">
<path d="M12.8339 0.118164C5.89377 0.118164 0.270752 5.74118 0.270752 12.6813C0.270752 19.6214 5.89377 25.2444 12.8339 25.2444C19.774 25.2444 25.397 19.6214 25.397 12.6813C25.397 5.74118 19.774 0.118164 12.8339 0.118164ZM19.004 8.72492L16.9422 18.4411C16.7903 19.13 16.3799 19.2972 15.8075 18.973L12.6667 16.6579L11.152 18.1169C10.9849 18.284 10.843 18.4259 10.5188 18.4259L10.7417 15.2294L16.5623 9.9711C16.8156 9.74821 16.5066 9.62156 16.1722 9.84446L8.97883 14.3733L5.87857 13.4057C5.20482 13.1929 5.18962 12.732 6.02041 12.4077L18.1327 7.73709C18.695 7.53446 19.1864 7.87387 19.004 8.72492V8.72492Z" fill="white"/>
</svg>
