<?xml version="1.0" encoding="utf-8"?>
<!-- Generator: Adobe Illustrator 25.3.1, SVG Export Plug-In . SVG Version: 6.00 Build 0)  -->
<svg version="1.1" id="Layer_1" xmlns="http://www.w3.org/2000/svg" xmlns:xlink="http://www.w3.org/1999/xlink" x="0px" y="0px" width="27" height="22"
	 viewBox="0 0 27 22" style="enable-background:new 0 0 27 22;" xml:space="preserve">
<style type="text/css">
	.st0{fill:#FFFFFF;}
</style>
<path class="st0" d="M23.6,5.2c0,0.2,0,0.5,0,0.7c0,7-5.3,15.1-15.1,15.1c-3,0-5.8-0.9-8.2-2.4c0.4,0,0.8,0.1,1.3,0.1
	c2.5,0,4.8-0.8,6.6-2.3c-2.3,0-4.3-1.6-5-3.7c0.3,0,0.7,0.1,1,0.1c0.5,0,1-0.1,1.4-0.2c-2.4-0.5-4.3-2.6-4.3-5.2V7.4
	C2.1,7.8,2.9,8,3.8,8.1c-1.4-1-2.4-2.6-2.4-4.4c0-1,0.3-1.9,0.7-2.7c2.6,3.2,6.6,5.3,11,5.6C13,6.1,13,5.7,13,5.3
	C13,2.4,15.4,0,18.3,0c1.5,0,2.9,0.6,3.9,1.7c1.2-0.2,2.4-0.7,3.4-1.3c-0.4,1.2-1.2,2.3-2.3,2.9c1.1-0.1,2.1-0.4,3.1-0.8
	C25.6,3.6,24.7,4.5,23.6,5.2L23.6,5.2z"/>
</svg>
