<svg width="29" height="24" viewBox="0 0 29 24" fill="none" xmlns="http://www.w3.org/2000/svg">
<path d="M28.2806 3.47214C27.2331 3.93163 26.1169 4.2362 24.9532 4.38409C26.1504 3.66931 27.0641 2.5461 27.4937 1.19226C26.3775 1.85774 25.1451 2.3278 23.8318 2.59012C22.772 1.46162 21.2614 0.762695 19.6136 0.762695C16.4165 0.762695 13.8426 3.3577 13.8426 6.53896C13.8426 6.9967 13.8813 7.43683 13.9764 7.85583C9.17546 7.62168 4.92733 5.32068 2.07352 1.81549C1.5753 2.6799 1.28305 3.66931 1.28305 4.73443C1.28305 6.73438 2.31295 8.50722 3.84813 9.53361C2.92033 9.516 2.01015 9.24664 1.23904 8.82236C1.23904 8.83996 1.23904 8.86285 1.23904 8.88574C1.23904 11.692 3.24075 14.0229 5.86568 14.5599C5.39563 14.6884 4.88331 14.75 4.35164 14.75C3.98193 14.75 3.6087 14.7289 3.25835 14.6514C4.00658 16.9384 6.12976 18.6197 8.65435 18.6742C6.68961 20.2112 4.19495 21.1372 1.49431 21.1372C1.02073 21.1372 0.566519 21.1161 0.112305 21.058C2.67034 22.7076 5.70196 23.6495 8.97124 23.6495C19.5977 23.6495 25.4075 14.8469 25.4075 7.21676C25.4075 6.96149 25.3987 6.71501 25.3863 6.4703C26.5324 5.65694 27.4954 4.64112 28.2806 3.47214Z" fill="white"/>
</svg>
